<svg id="Capa_1" enable-background="new 0 0 512 512" height="512" viewBox="0 0 512 512" width="512" xmlns="http://www.w3.org/2000/svg"><g><g><path d="m180.827 73.31h62.39v29.91h-62.39z" fill="#7d89e5" transform="matrix(.707 -.707 .707 .707 -.313 175.775)"/></g><path d="m350.679 95.821-267.871.411c-44.843 0-81.326 36.483-81.326 81.325v12.654l206.358 75.104 142.885-139.584z" fill="#fc445f"/><g><g><g><path d="m390.193 279.685h62.39v29.91h-62.39z" fill="#6260d0" transform="matrix(.707 -.707 .707 .707 -84.92 384.265)"/></g><g><g><path d="m246.248 304.677 76.403 207.193h10.425c44.843 0 81.326-36.483 81.326-81.326v-270.208z" fill="#e1105a"/><g><path d="m144.198 511.61-46.753-97.564-97.445-46.611 32.912-32.911c15.451-15.451 36.699-23.098 58.415-21.065l38.506-.225 287.565-287.566c14.527-14.527 33.831-22.999 54.356-23.856l40.246-1.682-2.98 42.553c-1.376 19.646-9.803 38.134-23.728 52.059l-290.167 290.168 1.726 35.972c2.256 21.95-5.382 43.457-20.999 59.075z" fill="#dbeffa"/></g></g></g></g></g><g><path d="m97.568 414.302 46.63 97.307 31.654-31.653c15.617-15.618 23.256-37.125 20.999-59.075l-1.726-35.972 290.167-290.167c13.925-13.925 22.352-32.413 23.728-52.059l2.98-42.553-53.003 52.743z" fill="#cbe8f8"/></g><g><path d="m29.226 415.014h104.853v29.91h-104.853z" fill="#fc445f" transform="matrix(.707 -.707 .707 .707 -280.119 183.672)"/></g><path d="m34.575 427.929h104.853v14.78h-104.853z" fill="#e1105a" transform="matrix(.707 -.707 .707 .707 -282.334 189.02)"/><g><path d="m417.074 25.992-24.308 24.308c34.896 6.606 61.877 33.594 68.475 68.493l24.311-24.311c-11.701-31.81-36.671-56.784-68.478-68.49z" fill="#cbe8f8"/></g><g><path d="m437.771 74.099c11.848 11.913 20.186 27.322 23.47 44.694l24.311-24.311c-5.824-15.832-14.937-29.97-26.542-41.622z" fill="#b2dcfd"/></g></g></svg>